<?xml version="1.0" encoding="UTF-8" standalone="no"?>
<!-- Created with Inkscape (http://www.inkscape.org/) -->

<svg
   width="59.785347mm"
   height="62.378586mm"
   viewBox="0 0 59.785347 62.378586"
   version="1.1"
   id="svg1"
   xml:space="preserve"
   inkscape:version="1.4.2 (ebf0e940d0, 2025-05-08)"
   sodipodi:docname="miracledraft_map_helper.svg"
   xmlns:inkscape="http://www.inkscape.org/namespaces/inkscape"
   xmlns:sodipodi="http://sodipodi.sourceforge.net/DTD/sodipodi-0.dtd"
   xmlns="http://www.w3.org/2000/svg"
   xmlns:svg="http://www.w3.org/2000/svg"><sodipodi:namedview
     id="namedview1"
     pagecolor="#ffffff"
     bordercolor="#000000"
     borderopacity="0.25"
     inkscape:showpageshadow="2"
     inkscape:pageopacity="0.0"
     inkscape:pagecheckerboard="0"
     inkscape:deskcolor="#d1d1d1"
     inkscape:document-units="mm"
     inkscape:zoom="1.4450552"
     inkscape:cx="363.30791"
     inkscape:cy="173.34977"
     inkscape:window-width="2494"
     inkscape:window-height="1371"
     inkscape:window-x="0"
     inkscape:window-y="0"
     inkscape:window-maximized="1"
     inkscape:current-layer="svg1" /><defs
     id="defs1"><filter
       inkscape:collect="always"
       style="color-interpolation-filters:sRGB"
       id="filter3"
       x="-0.01188904"
       y="-0.015009692"
       width="1.0283696"
       height="1.0269054"><feGaussianBlur
         inkscape:collect="always"
         stdDeviation="0.091799579"
         id="feGaussianBlur3" /></filter><filter
       inkscape:collect="always"
       style="color-interpolation-filters:sRGB"
       id="filter41"
       x="-0.094128698"
       y="-0.10153207"
       width="1.1882574"
       height="1.2030641"><feGaussianBlur
         inkscape:collect="always"
         stdDeviation="0.61897262"
         id="feGaussianBlur41" /></filter><filter
       inkscape:collect="always"
       style="color-interpolation-filters:sRGB"
       id="filter42"
       x="-0.036816127"
       y="-0.044425495"
       width="1.0846518"
       height="1.0813774"><feGaussianBlur
         inkscape:collect="always"
         stdDeviation="0.41053667"
         id="feGaussianBlur42" /></filter></defs><g
     inkscape:label="Ebene 1"
     inkscape:groupmode="layer"
     id="layer1"><path
       style="fill:#000000"
       id="path1"
       d="" /><path
       style="fill:#000000"
       id="path2"
       d="" /></g><g
     id="g43"
     transform="translate(-93.3496,-19.897287)"><path
       style="mix-blend-mode:normal;fill:#ffffff;stroke:#ffffff;stroke-width:2.4;stroke-dasharray:none;filter:url(#filter42)"
       d="m 95.378882,76.644551 2.30638,-4.069564 5.371798,-6.986715 0.27404,1.245656 32.17583,-32.504658 -17.40516,16.148911 -5.52511,5.696291 -9.24556,10.659456 -0.89948,-4.08863 0.71792,-6.74672 3.98476,-8.75311 5.15453,-5.65772 0.40968,0.9094 0.35116,2.29169 0.34605,1.32292 0.15129,-1.63569 0.7582,-3.68006 0.60691,-2.04438 2.74217,-2.27306 3.587,-2.73944 0.84482,-0.46639 c 0.24553,1.905881 0.43222,3.217766 0.82583,4.90152 0.1998,-1.741957 0.71183,-3.895955 1.48869,-6.774988 l 3.18565,-2.283424 -1.39175,6.962907 3.5216,-7.946824 3.43006,-1.996215 0.18877,1.124479 0.26053,1.521354 0.26053,-0.156177 0.8016,-2.149086 2.6465,-2.422766 13.19415,-1.74244 -3.29118,11.62984 c -2.54009,0.969544 -5.17447,1.633039 -7.79077,2.3578 l -1.19062,0.58365 4.04139,0.18596 3.24765,-0.0476 c -0.82314,1.524966 -1.88455,2.905758 -2.86911,4.32852 l -2.97815,2.97922 c -2.99044,0.572493 -5.95887,1.243174 -8.98241,1.60564 l 6.13352,1.36826 0.82391,0.16646 -4.0737,5.09323 -2.46399,1.77534 -8.58191,2.04897 -2.55345,0.32045 2.24896,0.59542 3.64574,0.7595 1.51398,0.35369 -5.61042,3.93575 -9.65568,2.34135 -3.49369,0.49694 0.84596,0.50863 2.53499,2.07764 -6.80369,-0.457715 -5.455208,6.196348 -0.820247,0.954424 z"
       id="path42"
       sodipodi:nodetypes="ccccccccccccccccccccccccccccccccccccccccccccccccccccccccccc" /><path
       style="mix-blend-mode:normal;fill:#008000;stroke:#225500;filter:url(#filter3)"
       d="m 95.974192,76.352726 2.30638,-4.069564 5.371798,-6.986715 0.27404,1.245656 32.17583,-32.504658 -17.40516,16.148911 -5.52511,5.696291 -9.24556,10.659456 -0.89948,-4.08863 0.71792,-6.74672 3.98476,-8.75311 5.15453,-5.65772 0.40968,0.9094 0.35116,2.29169 0.34605,1.32292 0.15129,-1.63569 0.7582,-3.68006 0.60691,-2.04438 2.74217,-2.27306 3.587,-2.73944 0.84482,-0.46639 c 0.24553,1.905881 0.43222,3.217766 0.82583,4.90152 0.1998,-1.741957 0.71183,-3.895955 1.48869,-6.774988 l 3.18565,-2.283424 -1.39175,6.962907 3.5216,-7.946824 3.43006,-1.996215 0.18877,1.124479 0.26053,1.521354 0.26053,-0.156177 0.8016,-2.149086 2.6465,-2.422766 13.19415,-1.74244 -3.29118,11.62984 c -2.54009,0.969544 -5.17447,1.633039 -7.79077,2.3578 l -1.19062,0.58365 4.04139,0.18596 3.24765,-0.0476 c -0.82314,1.524966 -1.88455,2.905758 -2.86911,4.32852 l -2.97815,2.97922 c -2.99044,0.572493 -5.95887,1.243174 -8.98241,1.60564 l 6.13352,1.36826 0.82391,0.16646 -4.0737,5.09323 -2.46399,1.77534 -8.58191,2.04897 -2.55345,0.32045 2.24896,0.59542 3.64574,0.7595 1.51398,0.35369 -5.61042,3.93575 -9.65568,2.34135 -3.49369,0.49694 0.84596,0.50863 2.53499,2.07764 -6.80369,-0.457715 -5.45521,6.196348 -0.820245,0.954424 z"
       id="path3"
       sodipodi:nodetypes="ccccccccccccccccccccccccccccccccccccccccccccccccccccccccccc" /><g
       id="g42"><path
         id="path41"
         style="mix-blend-mode:normal;fill:#ffffff;fill-opacity:1;stroke:#ffffff;stroke-width:1.2;stroke-dasharray:none;stroke-opacity:1;filter:url(#filter41)"
         d="m 137.29579,58.529787 -1.495,0.485759 -0.031,2.046903 0.0491,0.132809 0.77928,1.522388 -1.8526,1.346171 -1.20717,-1.211813 -0.1111,-0.08785 -1.95647,-0.603064 -0.92397,1.271757 1.17822,1.674317 0.11782,0.07803 1.52549,0.774113 -0.70745,2.178162 -1.6893,-0.270785 -0.14108,-0.0057 -1.93735,0.661458 v 1.571997 l 1.93735,0.661975 0.14108,-0.0062 1.6893,-0.270268 0.70745,2.178162 -1.52549,0.773596 -0.11782,0.07855 -1.17822,1.6738 0.92397,1.271757 1.95647,-0.603064 0.1111,-0.08785 1.20717,-1.211812 1.8526,1.346171 -0.77928,1.522904 -0.0491,0.132292 0.031,2.046904 1.495,0.485758 1.22783,-1.637626 0.0382,-0.136426 0.26458,-1.689819 h 2.2903 l 0.26459,1.689819 0.0377,0.136426 1.22835,1.637626 1.495,-0.485758 0.031,-2.046904 -0.0496,-0.132292 -0.77929,-1.522904 1.85312,-1.346171 1.20716,1.211812 0.11111,0.08785 1.95595,0.603064 0.92397,-1.271757 -1.17822,-1.6738 -0.11782,-0.07855 -1.52549,-0.773596 0.70797,-2.178162 1.68878,0.270268 0.1416,0.0062 1.93683,-0.661975 v -1.571997 l -1.93683,-0.661458 -0.1416,0.0057 -1.68878,0.270785 -0.70797,-2.178162 1.52549,-0.774113 0.11782,-0.07803 1.17822,-1.674317 -0.92397,-1.271757 -1.95595,0.603064 -0.11111,0.08785 -1.20716,1.211813 -1.85312,-1.346171 0.77929,-1.522388 0.0496,-0.132809 -0.031,-2.046903 -1.495,-0.485759 -1.22835,1.637627 -0.0377,0.136425 -0.26459,1.68982 h -2.2903 l -0.26458,-1.68982 -0.0382,-0.136425 z m 2.6758,6.901905 a 3.8767002,3.8767002 0 0 1 3.87677,3.876766 3.8767002,3.8767002 0 0 1 -3.87677,3.876766 3.8767002,3.8767002 0 0 1 -3.87676,-3.876766 3.8767002,3.8767002 0 0 1 3.87676,-3.876766 z" /><path
         id="path40"
         style="fill:#008000;fill-opacity:1;stroke:#225500;stroke-width:0.450779;stroke-opacity:1"
         d="m 137.29579,58.529788 -1.495,0.48576 -0.031,2.04691 0.0491,0.1328 0.77928,1.52239 -1.8526,1.34617 -1.20717,-1.21181 -0.1111,-0.0878 -1.95647,-0.60306 -0.92397,1.27175 1.17822,1.67432 0.11782,0.078 1.52549,0.77411 -0.70745,2.17817 -1.6893,-0.27079 -0.14108,-0.006 -1.93735,0.66146 v 1.572 l 1.93735,0.66197 0.14108,-0.006 1.6893,-0.27027 0.70745,2.17816 -1.52549,0.7736 -0.11782,0.0786 -1.17822,1.6738 0.92397,1.27176 1.95647,-0.60307 0.1111,-0.0879 1.20717,-1.21181 1.8526,1.34617 -0.77928,1.52291 -0.0491,0.13229 0.031,2.0469 1.495,0.48576 1.22783,-1.63763 0.0382,-0.13642 0.26458,-1.68982 h 2.2903 l 0.26459,1.68982 0.0377,0.13642 1.22835,1.63763 1.495,-0.48576 0.031,-2.0469 -0.0496,-0.13229 -0.77929,-1.52291 1.85312,-1.34617 1.20716,1.21181 0.11111,0.0879 1.95595,0.60307 0.92397,-1.27176 -1.17822,-1.6738 -0.11782,-0.0786 -1.52549,-0.7736 0.70797,-2.17816 1.68878,0.27027 0.1416,0.006 1.93683,-0.66197 v -1.572 l -1.93683,-0.66146 -0.1416,0.006 -1.68878,0.27079 -0.70797,-2.17817 1.52549,-0.77411 0.11782,-0.078 1.17822,-1.67432 -0.92397,-1.27175 -1.95595,0.60306 -0.11111,0.0878 -1.20716,1.21181 -1.85312,-1.34617 0.77929,-1.52239 0.0496,-0.1328 -0.031,-2.04691 -1.495,-0.48576 -1.22835,1.63763 -0.0377,0.13643 -0.26459,1.68982 h -2.2903 l -0.26458,-1.68982 -0.0382,-0.13643 z m 2.6758,6.90191 a 3.8767002,3.8767002 0 0 1 3.87677,3.87676 3.8767002,3.8767002 0 0 1 -3.87677,3.87677 3.8767002,3.8767002 0 0 1 -3.87676,-3.87677 3.8767002,3.8767002 0 0 1 3.87676,-3.87676 z" /></g></g></svg>
