<?xml version="1.0" encoding="UTF-8" standalone="no"?>
<svg
   width="24"
   height="24"
   viewBox="0 0 24 24"
   fill="none"
   stroke="#ffffff"
   stroke-width="2"
   stroke-linecap="round"
   stroke-linejoin="round"
   class="icon icon-tabler icons-tabler-outline icon-tabler-brush"
   version="1.1"
   id="svg5"
   sodipodi:docname="brush.svg"
   inkscape:version="1.4.4 (dcaf3e7d9e, 2026-05-05)"
   xmlns:inkscape="http://www.inkscape.org/namespaces/inkscape"
   xmlns:sodipodi="http://sodipodi.sourceforge.net/DTD/sodipodi-0.dtd"
   xmlns="http://www.w3.org/2000/svg"
   xmlns:svg="http://www.w3.org/2000/svg">
  <defs
     id="defs5" />
  <sodipodi:namedview
     id="namedview5"
     pagecolor="#b9b9b9"
     bordercolor="#000000"
     borderopacity="0.25"
     inkscape:showpageshadow="2"
     inkscape:pageopacity="0.0"
     inkscape:pagecheckerboard="0"
     inkscape:deskcolor="#d1d1d1"
     inkscape:zoom="23.645833"
     inkscape:cx="-2.2202643"
     inkscape:cy="10.382379"
     inkscape:window-width="2494"
     inkscape:window-height="1363"
     inkscape:window-x="0"
     inkscape:window-y="0"
     inkscape:window-maximized="1"
     inkscape:current-layer="svg5"
     showguides="true">
    <sodipodi:guide
       position="35.097806,27.429273"
       orientation="0,-1"
       id="guide14"
       inkscape:locked="false" />
  </sodipodi:namedview>
  <path
     style="baseline-shift:baseline;display:inline;overflow:visible;fill:#ffffff;stroke:#000000;stroke-width:0.2;stroke-linecap:butt;stroke-linejoin:miter;stroke-dasharray:none;enable-background:accumulate;stop-color:#000000"
     d="M 3,21 V 17 C 3,13.436133 7.3085542,11.651987 9.8282834,14.171717 12.348013,16.691446 10.563867,21 7,21 H 3"
     id="path1"
     sodipodi:nodetypes="csssc" />
  <path
     id="path6"
     style="baseline-shift:baseline;display:inline;overflow:visible;fill:#ffffff;stroke:#000000;stroke-width:0.2;stroke-linecap:butt;stroke-linejoin:miter;stroke-dasharray:none;enable-background:accumulate;stop-color:#000000"
     d="m 20.978516,2 c -0.03791,0.0011 -0.07574,0.00436 -0.113282,0.00977 -0.0114,0.00156 -0.02376,0.00232 -0.03516,0.00391 C 16.42127,2.6257985 12.524797,4.9504848 9.8457031,8.34375 9.8363732,8.3539763 9.8272567,8.3643952 9.8183594,8.375 8.9422154,9.4903041 8.1845526,10.709419 7.5976562,12.033203 6.7355862,11.932442 5.8648659,12.058259 5.0859375,12.380859 3.3573719,13.096762 2,14.815081 2,17 v 4 c 0,0.552285 0.4477153,1 1,1 h 4 c 2.1849185,0 3.903238,-1.357372 4.619141,-3.085938 0.322716,-0.779208 0.448752,-1.649509 0.347656,-2.511718 1.330324,-0.589534 2.554226,-1.350826 3.673828,-2.232422 3.380471,-2.661847 5.694593,-6.5354406 6.326172,-10.9160158 0.0072,-0.029019 0.01303,-0.058346 0.01758,-0.087891 0.0015,-0.010568 0.0044,-0.020676 0.0059,-0.03125 0.0043,-0.033052 0.0069,-0.066297 0.0078,-0.099609 8.14e-4,-0.010406 0.0015,-0.020824 0.002,-0.03125 10e-6,-0.0026 10e-6,-0.00521 0,-0.00781 -4.88e-4,-0.010426 -0.0011,-0.020844 -0.002,-0.03125 -9.43e-4,-0.033313 -0.0036,-0.066557 -0.0078,-0.099609 -0.0061,-0.044839 -0.01523,-0.089211 -0.02734,-0.1328125 -6.45e-4,-0.00196 -0.0013,-0.00391 -0.002,-0.00586 -0.01039,-0.035821 -0.02278,-0.071032 -0.03711,-0.1054687 -0.01442,-0.034081 -0.03072,-0.067335 -0.04883,-0.099609 -0.0025,-0.00588 -0.0052,-0.011744 -0.0078,-0.017578 -0.0013,-0.00196 -0.0026,-0.00391 -0.0039,-0.00586 -0.01517,-0.025451 -0.03146,-0.050215 -0.04883,-0.074219 -0.01065,-0.01528 -0.02172,-0.03026 -0.0332,-0.044922 -0.01736,-0.021582 -0.0356,-0.042433 -0.05469,-0.0625 -0.0058,-0.00659 -0.01163,-0.013098 -0.01758,-0.019531 -0.0032,-0.00328 -0.0065,-0.00653 -0.0098,-0.00977 -0.0243,-0.022739 -0.04972,-0.04425 -0.07617,-0.064453 -0.0039,-0.00394 -0.0078,-0.00784 -0.01172,-0.011719 -0.0071,-0.0053 -0.01425,-0.010512 -0.02148,-0.015625 -0.01907,-0.013705 -0.03861,-0.026734 -0.05859,-0.039063 -0.02411,-0.015378 -0.04888,-0.029714 -0.07422,-0.042969 -0.01479,-0.00753 -0.02977,-0.014697 -0.04492,-0.021484 -0.03248,-0.014789 -0.06573,-0.027829 -0.09961,-0.039063 -0.0045,-0.00199 -0.0091,-0.00394 -0.01367,-0.00586 -0.002,-6.571e-4 -0.0039,-0.00131 -0.0059,-0.00195 -0.03214,-0.00944 -0.06473,-0.017266 -0.09766,-0.023437 -0.01619,-0.00366 -0.03247,-0.00692 -0.04883,-0.00977 -0.0039,-6.743e-4 -0.0078,-0.00133 -0.01172,-0.00195 -0.03754,-0.0054 -0.07537,-0.00866 -0.113282,-0.00977 -0.0059,-5.15e-5 -0.01172,-5.15e-5 -0.01758,0 -0.0026,-1.02e-5 -0.0052,-1.02e-5 -0.0078,0 -0.0059,-5.15e-5 -0.01172,-5.15e-5 -0.01758,0 z M 19.755859,4.2441406 C 19.719835,4.398497 19.681379,4.554424 19.640625,4.7070312 L 14.660156,10.955078 C 14.185059,10.356462 13.643507,9.8149088 13.044922,9.3398438 L 19.292969,4.359375 h 0.002 c 0.152592,-0.040743 0.306596,-0.079222 0.460937,-0.1152344 z m -8.326171,6.3828124 c 0.755414,0.530881 1.412476,1.1899 1.943359,1.945313 l -1.212891,1.521484 c -0.270538,0.142967 -0.545429,0.277494 -0.826172,0.404297 C 11.12164,14.132755 10.855738,13.785425 10.535156,13.464844 10.214494,13.144181 9.8670763,12.87856 9.5019531,12.666016 9.6286927,12.385438 9.7633647,12.110227 9.90625,11.839844 Z M 7.09375,13.984375 c 0.303996,0.005 1.2237894,0.09098 2.0273438,0.894531 0.7849027,0.784902 1.1789832,1.99323 0.6503909,3.269532 C 9.3342793,19.204082 8.3789487,20 7,20 H 4 V 17 C 4,15.621051 4.7959187,14.665721 5.8515625,14.228516 6.2474289,14.064563 6.6696485,13.977403 7.09375,13.984375 Z"
     sodipodi:nodetypes="ccccccsssssscsccccccccccccccccccccccccccccccccccccccccccccscscccsscccssssc" />
</svg>
