<?xml version="1.0" encoding="UTF-8" standalone="no"?>
<svg
   width="24"
   height="24"
   viewBox="0 0 24 24"
   fill="none"
   stroke="currentColor"
   stroke-width="2"
   stroke-linecap="round"
   stroke-linejoin="round"
   class="icon icon-tabler icons-tabler-outline icon-tabler-color-picker"
   version="1.1"
   id="svg3"
   sodipodi:docname="color-picker.svg"
   inkscape:version="1.4.4 (dcaf3e7d9e, 2026-05-05)"
   xmlns:inkscape="http://www.inkscape.org/namespaces/inkscape"
   xmlns:sodipodi="http://sodipodi.sourceforge.net/DTD/sodipodi-0.dtd"
   xmlns="http://www.w3.org/2000/svg"
   xmlns:svg="http://www.w3.org/2000/svg">
  <defs
     id="defs3" />
  <sodipodi:namedview
     id="namedview3"
     pagecolor="#949494"
     bordercolor="#000000"
     borderopacity="0.25"
     inkscape:showpageshadow="2"
     inkscape:pageopacity="0.0"
     inkscape:pagecheckerboard="0"
     inkscape:deskcolor="#d1d1d1"
     inkscape:zoom="16"
     inkscape:cx="15.09375"
     inkscape:cy="12.53125"
     inkscape:window-width="2494"
     inkscape:window-height="1363"
     inkscape:window-x="0"
     inkscape:window-y="0"
     inkscape:window-maximized="1"
     inkscape:current-layer="svg3" />
  <path
     id="path2"
     style="baseline-shift:baseline;display:inline;overflow:visible;opacity:1;fill:#ffffff;stroke:#000000;stroke-linecap:butt;stroke-linejoin:miter;enable-background:accumulate;stop-color:#000000;stop-opacity:1;stroke-width:0.4;stroke-dasharray:none"
     d="m 14.878906,4.5019531 c -0.556945,0.012795 -1.150385,0.2093566 -1.599609,0.6289063 -0.381472,0.356273 -0.537955,0.9183841 -0.703125,1.4726562 L 12.285156,6.8710938 11.707031,6.2929688 C 11.519526,6.1054233 11.265201,6.0000401 11,6 c -0.265201,4.01e-5 -0.519526,0.1054233 -0.707031,0.2929688 -0.3904235,0.390507 -0.3904235,1.0235554 0,1.4140624 l 0.523437,0.5234376 -6.0839841,5.6230472 c -0.3193491,0.336667 -0.5589532,0.629683 -0.2207031,1.169922 0.470575,0.972891 0.3985444,1.532671 0.125,2.191406 -0.2735448,0.658735 -0.8549104,1.372348 -1.4492188,2.203125 -0.595944,0.835586 0.3030043,1.919444 1.234375,1.488281 1.0030219,-0.465754 1.9092421,-1.147426 2.6230469,-1.458984 0.3569024,-0.155779 0.633239,-0.209917 0.8027343,-0.195313 0.1694954,0.0146 0.2801785,0.044 0.5039063,0.300781 0.3816936,0.437057 1.0539997,0.458599 1.4628906,0.04687 l 6.1601559,-6.210937 0.31836,0.318359 c 0.390507,0.390423 1.023555,0.390423 1.414062,0 0.390423,-0.390507 0.390423,-1.023555 0,-1.414062 l -0.251953,-0.251953 c 0.02188,-0.02112 0.04206,-0.04094 0.06055,-0.05859 0.698789,-0.09826 1.299571,-0.337807 1.744141,-0.775391 0.496503,-0.4887 0.693897,-1.186706 0.660156,-1.7968748 C 19.85244,8.1898296 19.14619,7.1287695 18.277344,6.234375 17.408498,5.3399805 16.355671,4.5965841 15.115234,4.5078125 c -0.07753,-0.00555 -0.156764,-0.00769 -0.236328,-0.00586 z m -0.02734,1.9960938 c 0.03297,-0.0013 0.07236,4.187e-4 0.121094,0.00391 0.389866,0.027901 1.231357,0.4684043 1.871094,1.1269531 0.639737,0.6585489 1.057453,1.5187413 1.078125,1.8925782 0.01034,0.1869184 -0.0064,0.2045953 -0.06445,0.2617187 -0.05804,0.057123 -0.261328,0.1897214 -0.771484,0.2363281 -0.471782,0.04309 -0.612395,0.224542 -0.744141,0.332031 -0.129576,0.105717 -0.221663,0.198655 -0.300781,0.275391 L 13.701172,8.2871094 13.998047,8.0136719 c 0.163351,-0.1505546 0.271925,-0.351211 0.308594,-0.5703125 0.08956,-0.5363459 0.249216,-0.768746 0.33789,-0.8515625 0.0665,-0.062113 0.108116,-0.089854 0.207031,-0.09375 z m -2.61914,3.1484375 2.328125,2.3281246 -5.6914064,5.738282 C 8.5756118,17.568857 8.6327045,17.464755 8.328183,17.438517 7.788093,17.39198 6.0881087,18.000609 5.6374268,18.169338 5.8738638,17.394691 6.7856039,15.886559 6.5058594,14.9375 Z m 5.375,2.2519536 h 0.002 0.002 v 0.002 0.002 0.002 0.002 0.002 l -0.002,0.002 c -0.0067,0.01026 -0.02401,0.02678 -0.06055,0.04297 0.02798,-0.02643 0.04757,-0.04533 0.05664,-0.05273 h 0.002 z"
     sodipodi:nodetypes="ssccccsccccsccssccccccccssssscsssccsccccsscccsccccccccccccccccc" />
</svg>
