<?xml version="1.0" encoding="UTF-8" standalone="no"?>
<svg
   width="24"
   height="24"
   viewBox="0 0 24 24"
   fill="none"
   stroke="#ffffff"
   stroke-width="2"
   stroke-linecap="round"
   stroke-linejoin="round"
   class="icon icon-tabler icons-tabler-outline icon-tabler-palette"
   version="1.1"
   id="svg5"
   sodipodi:docname="palette.svg"
   inkscape:version="1.4.4 (dcaf3e7d9e, 2026-05-05)"
   xmlns:inkscape="http://www.inkscape.org/namespaces/inkscape"
   xmlns:sodipodi="http://sodipodi.sourceforge.net/DTD/sodipodi-0.dtd"
   xmlns="http://www.w3.org/2000/svg"
   xmlns:svg="http://www.w3.org/2000/svg">
  <defs
     id="defs5" />
  <sodipodi:namedview
     id="namedview5"
     pagecolor="#b7b7b7"
     bordercolor="#000000"
     borderopacity="0.25"
     inkscape:showpageshadow="2"
     inkscape:pageopacity="0.0"
     inkscape:pagecheckerboard="0"
     inkscape:deskcolor="#d1d1d1"
     inkscape:zoom="22.627417"
     inkscape:cx="14.075844"
     inkscape:cy="20.307223"
     inkscape:window-width="2494"
     inkscape:window-height="1363"
     inkscape:window-x="0"
     inkscape:window-y="0"
     inkscape:window-maximized="1"
     inkscape:current-layer="svg5" />
  <path
     stroke="none"
     d="M0 0h24v24H0z"
     fill="none"
     id="path1" />
  <path
     style="baseline-shift:baseline;display:inline;overflow:visible;opacity:1;fill:#ffffff;stroke:#000000;stroke-width:0.3;stroke-linecap:butt;stroke-linejoin:miter;stroke-dasharray:none;enable-background:accumulate;stop-color:#000000;stop-opacity:1"
     d="M 12,2 C 6.4889941,2 2,6.4889982 2,12 c 0,5.472942 4.4338154,9.917104 9.892578,9.978516 0.0051,0.0059 0.01035,0.01178 0.01563,0.01758 0.01223,0.0011 0.02101,-0.0087 0.0332,-0.0078 C 11.962137,21.988408 11.97924,22 12,22 c 0.01132,-0.01081 0.02239,-0.02188 0.0332,-0.0332 0.981683,0.03029 1.839727,-0.545636 2.1875,-1.328125 0.363887,-0.818746 0.224296,-1.91506 -0.542969,-2.623047 -0.0586,-0.05444 -0.123513,-0.101652 -0.193356,-0.140628 -0.521204,-0.288191 -0.597126,-0.702674 -0.482422,-1.132813 0.114704,-0.430138 0.386926,-0.751783 0.982422,-0.742187 0.0052,4.1e-5 0.01042,4.1e-5 0.01563,0 h 2.5 c 1.42882,0 2.805242,-0.499248 3.845703,-1.423828 C 21.386598,13.651206 22,12.358113 22,11 22,5.9738817 17.450483,2 12,2 Z m 0,2 c 4.489517,0 8,3.1901183 8,7 0,0.761887 -0.335317,1.505044 -0.982422,2.080078 C 18.370039,13.655498 17.45718,14 16.5,14 h -2.484375 c -1.487353,-0.02397 -2.626932,1.02531 -2.947266,2.226562 -0.709639,2.661148 1.474472,2.984205 1.437498,3.65625 C 12.444512,20.997819 4,19.6823 4,12 4,7.5698765 7.5698737,4 12,4 Z"
     id="path2"
     sodipodi:nodetypes="sscccccsccsccsssssssscssss" />
  <circle
     style="fill:#ffffff;stroke:#000000;stroke-width:0.501381;stroke-linecap:round;stroke-linejoin:round;stroke-dasharray:none;paint-order:markers stroke fill;fill-opacity:1"
     id="path8"
     cx="12.5"
     cy="7.3400884"
     r="1.7493099" />
  <circle
     style="fill:#ffffff;stroke:#000000;stroke-width:0.501381;stroke-linecap:round;stroke-linejoin:round;stroke-dasharray:none;paint-order:markers stroke fill;fill-opacity:1"
     id="path8-6"
     cx="8.499999"
     cy="10.329515"
     r="1.7493099" />
  <circle
     style="fill:#ffffff;stroke:#000000;stroke-width:0.501381;stroke-linecap:round;stroke-linejoin:round;stroke-dasharray:none;paint-order:markers stroke fill;fill-opacity:1"
     id="path8-6-5"
     cx="16.5"
     cy="10.807049"
     r="1.7493099" />
</svg>
